<svg xmlns="http://www.w3.org/2000/svg" viewBox="0 0 141.05 91.7"><defs><style>.cls-1{fill:#92278f;}.cls-2{fill:#009444;}.cls-3{fill:#f9ed32;}</style></defs><g id="Layer_2" data-name="Layer 2"><g id="Layer_1-2" data-name="Layer 1"><path class="cls-1" d="M132.83,81.63s-9.69,9.47-21.27,9.47-12-6.57-24.25-6.57c-9.51,0-14.65,4.66-16.45,6.7a4.91,4.91,0,0,0-.37.47l-.38-.47c-1.8-2-6.93-6.7-16.46-6.7C41.46,84.53,41,91.1,29.41,91.1S8.14,81.63,8.14,81.63s10.33,3.68,20.64,3.68S42.86,78,53.34,78c9.09,0,15.58,5.52,17.15,7,1.6-1.52,8.09-7,17.14-7,10.48,0,14.23,7.35,24.56,7.35S132.83,81.63,132.83,81.63Z"/><path class="cls-1" d="M141.05,68.2,136.36,78s-16.49,4-25.76,4S100.27,74,87.35,74c-10.33,0-15,4.53-16.51,6.35-.14.16-.23.3-.32.4-.08-.1-.17-.24-.31-.4C68.74,78.57,64,74,53.7,74,40.78,74,39.73,82,30.45,82S4.69,78,4.69,78L0,68.2,31.49,40.56,10.33,67.78a52.38,52.38,0,0,0,19.4,3.55c11.37,0,11.46-7.4,24.6-7.4,9.4,0,14.2,4.59,16.19,7.21,2-2.62,6.8-7.21,16.2-7.21,13.14,0,13.25,7.4,24.61,7.4a52.35,52.35,0,0,0,19.39-3.55L109.56,40.56Z"/><path class="cls-2" d="M70.48,63.4s6.85-12.67,21.09-12.67,23.77-21.58,23.77-21.58S100.67,42,92.91,42,70.76,46.42,70.48,63.4Z"/><path class="cls-2" d="M69.86,63.4S63,50.73,48.77,50.73,25,29.15,25,29.15,39.67,42,47.43,42,69.58,46.42,69.86,63.4Z"/><path class="cls-3" d="M69.86,54.85s3.3-16.58,17-16.58S104,18.88,104,0c-2.78,10.76-7,23.27-16.9,27.43-9,3.75-26,4.17-34.2,0,0,0-13.14-6.36-16.79-27.43.21,24.09,3.75,38.38,17,38.38S69.86,54.85,69.86,54.85Z"/><circle class="cls-3" cx="69.86" cy="17.69" r="15.92"/><circle class="cls-2" cx="35.2" cy="31.34" r="3.23"/><circle class="cls-2" cx="104.76" cy="31.34" r="3.23"/></g></g></svg>