<svg id="Layer_1" data-name="Layer 1" xmlns="http://www.w3.org/2000/svg" viewBox="0 0 414.62 91.7"><defs><style>.cls-1{fill:#92278f;}.cls-2{fill:#009444;}.cls-3{fill:#f9ed32;}</style></defs><path class="cls-1" d="M132.83,81.63s-9.69,9.47-21.27,9.47-12-6.57-24.25-6.57c-9.51,0-14.65,4.66-16.45,6.7a4.91,4.91,0,0,0-.37.47l-.38-.47c-1.8-2-6.93-6.7-16.46-6.7C41.46,84.53,41,91.1,29.41,91.1S8.14,81.63,8.14,81.63s10.33,3.68,20.64,3.68S42.86,78,53.34,78c9.09,0,15.58,5.52,17.15,7,1.6-1.52,8.09-7,17.14-7,10.48,0,14.23,7.35,24.56,7.35S132.83,81.63,132.83,81.63Z"/><path class="cls-1" d="M141.05,68.2,136.36,78s-16.49,4-25.76,4S100.27,74,87.35,74c-10.33,0-15,4.53-16.51,6.35-.14.16-.23.3-.32.4-.08-.1-.17-.24-.31-.4C68.74,78.57,64,74,53.7,74,40.78,74,39.73,82,30.45,82S4.69,78,4.69,78L0,68.2,31.49,40.56,10.33,67.78a52.38,52.38,0,0,0,19.4,3.55c11.37,0,11.46-7.4,24.6-7.4,9.4,0,14.2,4.59,16.19,7.21,2-2.62,6.8-7.21,16.2-7.21,13.14,0,13.25,7.4,24.61,7.4a52.35,52.35,0,0,0,19.39-3.55L109.56,40.56Z"/><path class="cls-2" d="M70.48,63.4s6.85-12.67,21.09-12.67,23.77-21.58,23.77-21.58S100.67,42,92.91,42,70.76,46.42,70.48,63.4Z"/><path class="cls-2" d="M69.86,63.4S63,50.73,48.77,50.73,25,29.15,25,29.15,39.67,42,47.43,42,69.58,46.42,69.86,63.4Z"/><path class="cls-3" d="M69.86,54.85s3.3-16.58,17-16.58S104,18.88,104,0c-2.78,10.76-7,23.27-16.9,27.43-9,3.75-26,4.17-34.2,0,0,0-13.14-6.36-16.79-27.43.21,24.09,3.75,38.38,17,38.38S69.86,54.85,69.86,54.85Z"/><circle class="cls-3" cx="69.86" cy="17.69" r="15.92"/><path class="cls-2" d="M154,54.48V11.93h28.73V20H163.57v8.35h17v7.86h-17V46.44h20.56v8Z"/><path class="cls-2" d="M187.82,32h17.8V40.3h-17.8Z"/><path class="cls-2" d="M224.53,11.44q9.58,0,14.68,3.41t5.09,10.59a12,12,0,0,1-2.05,7.28,13.67,13.67,0,0,1-5.93,4.39q1.29,1.59,2.7,3.65c.94,1.37,1.88,2.8,2.8,4.3s1.81,3,2.67,4.66,1.66,3.21,2.39,4.76H236.17l-2.37-4.23q-1.2-2.16-2.46-4.18t-2.5-3.84c-.82-1.2-1.64-2.3-2.46-3.28h-4.73V54.48h-9.58V12.55a53.54,53.54,0,0,1,6.48-.86C220.78,11.53,222.77,11.44,224.53,11.44Zm.56,8.17c-.7,0-1.32,0-1.88.06l-1.56.12V31.34h2.7q5.4,0,7.74-1.35a4.9,4.9,0,0,0,2.33-4.61,4.68,4.68,0,0,0-2.37-4.45A14.56,14.56,0,0,0,225.09,19.61Z"/><path class="cls-2" d="M249.34,38.58a19.77,19.77,0,0,1,1.32-7.52,16,16,0,0,1,3.47-5.37,14.52,14.52,0,0,1,4.94-3.26,15.57,15.57,0,0,1,5.74-1.1q6.87,0,10.87,4.2t4,12.38c0,.53,0,1.11-.06,1.75s-.09,1.19-.13,1.68H258.73a6.06,6.06,0,0,0,2.64,4.49,10.65,10.65,0,0,0,6.26,1.65,26.28,26.28,0,0,0,4.95-.46,18.52,18.52,0,0,0,4-1.13l1.22,7.43a12.53,12.53,0,0,1-2,.73,26.21,26.21,0,0,1-2.73.65c-1,.18-2.08.34-3.23.46a32.84,32.84,0,0,1-3.43.18,20.37,20.37,0,0,1-7.59-1.29,14.66,14.66,0,0,1-5.34-3.53,14,14,0,0,1-3.13-5.31A20.85,20.85,0,0,1,249.34,38.58Zm21.49-3.5a10.19,10.19,0,0,0-.4-2.27,5.84,5.84,0,0,0-1.05-2,5.56,5.56,0,0,0-1.78-1.41,5.74,5.74,0,0,0-2.67-.55,6.13,6.13,0,0,0-2.64.52,5.57,5.57,0,0,0-1.84,1.38,6.35,6.35,0,0,0-1.14,2,13.36,13.36,0,0,0-.58,2.3Z"/><path class="cls-2" d="M298.33,21.33a21.39,21.39,0,0,1,6.76.92,10.35,10.35,0,0,1,4.32,2.64,9.7,9.7,0,0,1,2.31,4.17,20.65,20.65,0,0,1,.67,5.47v19q-2,.44-5.46,1a52.37,52.37,0,0,1-8.47.59,27.36,27.36,0,0,1-5.68-.55,12.28,12.28,0,0,1-4.39-1.82,8.26,8.26,0,0,1-2.83-3.28,11.41,11.41,0,0,1-1-5,9.38,9.38,0,0,1,1.14-4.79,8.58,8.58,0,0,1,3-3.13,13.81,13.81,0,0,1,4.36-1.69,24.37,24.37,0,0,1,5.1-.52,29.51,29.51,0,0,1,3.16.15,14.16,14.16,0,0,1,2.24.4V34.1a5.08,5.08,0,0,0-1.41-3.75q-1.41-1.41-4.91-1.41a30.7,30.7,0,0,0-4.61.34,20.23,20.23,0,0,0-3.93.95l-1.16-7.37c.53-.16,1.2-.33,2-.52s1.67-.35,2.61-.49,1.94-.27,3-.37S297.27,21.33,298.33,21.33Zm.74,26.77q1.35,0,2.58-.06a17.78,17.78,0,0,0,2-.19V40.91c-.37-.08-.92-.16-1.66-.24a18.44,18.44,0,0,0-4.45,0,6.45,6.45,0,0,0-2,.58,3.37,3.37,0,0,0-1.35,1.17,3.21,3.21,0,0,0-.49,1.84,3.14,3.14,0,0,0,1.44,3A8,8,0,0,0,299.07,48.1Z"/><path class="cls-2" d="M349.17,53.44c-.82.24-1.76.48-2.83.71s-2.18.41-3.34.58-2.36.3-3.56.4-2.37.15-3.47.15a20.21,20.21,0,0,1-7.12-1.17,14.19,14.19,0,0,1-5.28-3.34,14.42,14.42,0,0,1-3.29-5.28,20.1,20.1,0,0,1-1.13-7,23.69,23.69,0,0,1,1-7.09A15.25,15.25,0,0,1,323,26.06a12.06,12.06,0,0,1,4.51-3.38,15.13,15.13,0,0,1,6.11-1.17,14.66,14.66,0,0,1,3.41.37,18,18,0,0,1,3,1.05V8.31l9.15-1.47ZM328.48,38.09a11.17,11.17,0,0,0,1.9,6.81A6.57,6.57,0,0,0,336,47.48c.82,0,1.57,0,2.27-.09s1.27-.13,1.72-.21V30.54a7.71,7.71,0,0,0-2.24-.92,10.59,10.59,0,0,0-2.79-.37Q328.48,29.25,328.48,38.09Z"/><path class="cls-2" d="M356.23,38.58a19.77,19.77,0,0,1,1.32-7.52A16,16,0,0,1,361,25.69,14.52,14.52,0,0,1,366,22.43a15.61,15.61,0,0,1,5.74-1.1q6.87,0,10.87,4.2t4,12.38c0,.53,0,1.11-.06,1.75s-.09,1.19-.13,1.68H365.62a6.12,6.12,0,0,0,2.64,4.49,10.65,10.65,0,0,0,6.26,1.65,26.28,26.28,0,0,0,5-.46,18.52,18.52,0,0,0,4-1.13l1.23,7.43a13.1,13.1,0,0,1-2,.73,26.21,26.21,0,0,1-2.73.65c-1,.18-2.08.34-3.23.46a32.84,32.84,0,0,1-3.43.18,20.37,20.37,0,0,1-7.59-1.29,14.83,14.83,0,0,1-5.34-3.53,14,14,0,0,1-3.13-5.31A21.13,21.13,0,0,1,356.23,38.58Zm21.49-3.5a9.65,9.65,0,0,0-.4-2.27,5.67,5.67,0,0,0-1.05-2,5.56,5.56,0,0,0-1.78-1.41,5.74,5.74,0,0,0-2.67-.55,6.13,6.13,0,0,0-2.64.52,5.57,5.57,0,0,0-1.84,1.38,6.14,6.14,0,0,0-1.13,2,13.39,13.39,0,0,0-.59,2.3Z"/><path class="cls-2" d="M413.08,30.29c-.82-.2-1.78-.42-2.88-.64a17.59,17.59,0,0,0-3.57-.34,16.87,16.87,0,0,0-2.05.15,13.18,13.18,0,0,0-1.81.34V54.48h-9.15V23.91a52.46,52.46,0,0,1,5.8-1.63,33.53,33.53,0,0,1,7.46-.77c.49,0,1.08,0,1.78.09s1.39.15,2.09.25,1.39.23,2.09.37a10.31,10.31,0,0,1,1.78.52Z"/><path class="cls-1" d="M155.36,77.93a.42.42,0,0,1-.34-.13.45.45,0,0,1-.12-.33V64.31A.5.5,0,0,1,155,64a.42.42,0,0,1,.34-.13h8.33A.44.44,0,0,1,164,64a.5.5,0,0,1,.12.35v.77a.42.42,0,0,1-.46.46h-6.86V70h6.41a.47.47,0,0,1,.35.14.48.48,0,0,1,.12.35v.74a.49.49,0,0,1-.12.34.5.5,0,0,1-.35.13h-6.41v4.57h7a.42.42,0,0,1,.46.46v.79a.45.45,0,0,1-.12.33.44.44,0,0,1-.34.13Z"/><path class="cls-1" d="M167.33,77.93a.44.44,0,0,1-.33-.13.42.42,0,0,1-.13-.33V64.09a.43.43,0,0,1,.13-.33.44.44,0,0,1,.33-.13h.95a.42.42,0,0,1,.34.13.46.46,0,0,1,.12.33V77.47a.45.45,0,0,1-.12.33.42.42,0,0,1-.34.13Z"/><path class="cls-1" d="M175.94,78.14a4.41,4.41,0,0,1-3.33-1.28,5.29,5.29,0,0,1-1.35-3.5c0-.17,0-.4,0-.68s0-.5,0-.67a6,6,0,0,1,.67-2.51,4.13,4.13,0,0,1,1.6-1.66,4.71,4.71,0,0,1,2.39-.59,4.78,4.78,0,0,1,2.57.65,4.11,4.11,0,0,1,1.58,1.83,6.66,6.66,0,0,1,.54,2.78v.35a.44.44,0,0,1-.13.34.46.46,0,0,1-.33.12h-7v.18a4.14,4.14,0,0,0,.36,1.54,2.75,2.75,0,0,0,.94,1.16,2.37,2.37,0,0,0,1.44.44,2.84,2.84,0,0,0,2-.71,2.46,2.46,0,0,0,.41-.43,1,1,0,0,1,.28-.3.82.82,0,0,1,.32,0h1a.49.49,0,0,1,.31.11.36.36,0,0,1,.11.32,1.53,1.53,0,0,1-.32.73,3.88,3.88,0,0,1-.86.86,4.62,4.62,0,0,1-1.37.69A5.56,5.56,0,0,1,175.94,78.14Zm-2.76-6.21h5.52v-.06a3.73,3.73,0,0,0-.33-1.61,2.61,2.61,0,0,0-2.45-1.54,2.55,2.55,0,0,0-1.48.42,2.58,2.58,0,0,0-.94,1.12,3.73,3.73,0,0,0-.32,1.61Z"/><path class="cls-1" d="M187.26,78.14a5.14,5.14,0,0,1-2.46-.56A3.86,3.86,0,0,1,183.19,76a5.58,5.58,0,0,1-.6-2.49c0-.2,0-.47,0-.81s0-.6,0-.8a5.58,5.58,0,0,1,.6-2.49,3.86,3.86,0,0,1,1.61-1.59,5.14,5.14,0,0,1,2.46-.56,5.5,5.5,0,0,1,2,.33,4.21,4.21,0,0,1,1.38.82,3.76,3.76,0,0,1,.82,1.09,3.05,3.05,0,0,1,.29,1.11.37.37,0,0,1-.12.32.53.53,0,0,1-.35.12h-1A.46.46,0,0,1,190,71a1.1,1.1,0,0,1-.2-.31,2.7,2.7,0,0,0-1-1.39,2.83,2.83,0,0,0-1.56-.4,2.65,2.65,0,0,0-2,.74,3.48,3.48,0,0,0-.82,2.4q0,.72,0,1.41a3.45,3.45,0,0,0,.82,2.41,2.69,2.69,0,0,0,2,.73,2.83,2.83,0,0,0,1.56-.4,2.7,2.7,0,0,0,1-1.39,1.38,1.38,0,0,1,.2-.32.41.41,0,0,1,.31-.1h1a.49.49,0,0,1,.35.13.4.4,0,0,1,.12.33,3.55,3.55,0,0,1-.18.87,3.31,3.31,0,0,1-.52.89,3.56,3.56,0,0,1-.87.81,4.35,4.35,0,0,1-1.25.56A5.7,5.7,0,0,1,187.26,78.14Z"/><path class="cls-1" d="M198.25,77.93a3.46,3.46,0,0,1-1.84-.43,2.47,2.47,0,0,1-1-1.23,4.9,4.9,0,0,1-.33-1.88V69.07h-1.57a.49.49,0,0,1-.33-.13.45.45,0,0,1-.13-.34v-.68a.42.42,0,0,1,.13-.33.44.44,0,0,1,.33-.13h1.57V64.09a.47.47,0,0,1,.13-.33.45.45,0,0,1,.34-.13h.94a.45.45,0,0,1,.34.13.47.47,0,0,1,.13.33v3.37h2.5a.44.44,0,0,1,.34.13.45.45,0,0,1,.12.33v.68a.49.49,0,0,1-.12.34.48.48,0,0,1-.34.13h-2.5v5.18a2.89,2.89,0,0,0,.32,1.49,1.22,1.22,0,0,0,1.15.54h1.23a.49.49,0,0,1,.33.13.45.45,0,0,1,.13.34v.72a.42.42,0,0,1-.13.33.44.44,0,0,1-.33.13Z"/><path class="cls-1" d="M202.5,77.93a.44.44,0,0,1-.46-.46V67.94a.45.45,0,0,1,.13-.34.39.39,0,0,1,.33-.14h.93a.45.45,0,0,1,.34.14.46.46,0,0,1,.14.34v.89a2.57,2.57,0,0,1,1.11-1,3.86,3.86,0,0,1,1.71-.34h.79a.44.44,0,0,1,.33.13.42.42,0,0,1,.13.33v.82a.42.42,0,0,1-.13.33.48.48,0,0,1-.33.12h-1.21a2.32,2.32,0,0,0-1.72.63,2.39,2.39,0,0,0-.62,1.73v5.92a.42.42,0,0,1-.14.33.48.48,0,0,1-.34.13Z"/><path class="cls-1" d="M213.78,78.14a5.06,5.06,0,0,1-2.55-.59,4,4,0,0,1-1.58-1.62,5.61,5.61,0,0,1-.6-2.37c0-.23,0-.52,0-.88s0-.64,0-.85a5.47,5.47,0,0,1,.61-2.38,4,4,0,0,1,1.59-1.61,5.74,5.74,0,0,1,5.07,0,4,4,0,0,1,1.59,1.61,5.62,5.62,0,0,1,.61,2.38c0,.21,0,.5,0,.85s0,.65,0,.88a5.61,5.61,0,0,1-.6,2.37,4,4,0,0,1-1.58,1.62A5.08,5.08,0,0,1,213.78,78.14Zm0-1.56a2.61,2.61,0,0,0,2-.79,3.49,3.49,0,0,0,.81-2.33c0-.2,0-.46,0-.77s0-.56,0-.76a3.49,3.49,0,0,0-.81-2.33,2.93,2.93,0,0,0-4,0,3.44,3.44,0,0,0-.8,2.33c0,.2,0,.46,0,.76s0,.57,0,.77a3.44,3.44,0,0,0,.8,2.33A2.62,2.62,0,0,0,213.78,76.58Z"/><path class="cls-1" d="M221.52,77.93a.44.44,0,0,1-.33-.13.42.42,0,0,1-.13-.33V67.92a.42.42,0,0,1,.13-.33.44.44,0,0,1,.33-.13h.95a.43.43,0,0,1,.33.13.42.42,0,0,1,.13.33v.89a4.1,4.1,0,0,1,1.32-1.12,4.27,4.27,0,0,1,2.05-.44,4.18,4.18,0,0,1,2.23.58,3.65,3.65,0,0,1,1.39,1.59,5.66,5.66,0,0,1,.47,2.37v5.68a.42.42,0,0,1-.13.33.44.44,0,0,1-.33.13h-1a.42.42,0,0,1-.33-.13.42.42,0,0,1-.14-.33V71.89a3.27,3.27,0,0,0-.68-2.21,2.52,2.52,0,0,0-2-.79,2.62,2.62,0,0,0-2,.79,3.1,3.1,0,0,0-.76,2.21v5.58a.42.42,0,0,1-.13.33.43.43,0,0,1-.33.13Z"/><path class="cls-1" d="M233.57,65.5a.44.44,0,0,1-.46-.46V64a.45.45,0,0,1,.13-.34.43.43,0,0,1,.33-.15h1.27a.47.47,0,0,1,.35.15.46.46,0,0,1,.14.34V65a.45.45,0,0,1-.14.33.49.49,0,0,1-.35.13Zm.16,12.43a.44.44,0,0,1-.33-.13.42.42,0,0,1-.13-.33V67.92a.42.42,0,0,1,.13-.33.44.44,0,0,1,.33-.13h1a.42.42,0,0,1,.33.13.42.42,0,0,1,.14.33v9.55a.42.42,0,0,1-.14.33.42.42,0,0,1-.33.13Z"/><path class="cls-1" d="M242.42,78.14a5.18,5.18,0,0,1-2.47-.56,3.89,3.89,0,0,1-1.6-1.59,5.32,5.32,0,0,1-.6-2.49c0-.2,0-.47,0-.81s0-.6,0-.8a5.32,5.32,0,0,1,.6-2.49,3.89,3.89,0,0,1,1.6-1.59,5.18,5.18,0,0,1,2.47-.56,5.5,5.5,0,0,1,2,.33,4.43,4.43,0,0,1,1.38.82,3.55,3.55,0,0,1,.81,1.09,2.86,2.86,0,0,1,.29,1.11.32.32,0,0,1-.12.32.5.5,0,0,1-.34.12h-1a.45.45,0,0,1-.3-.09.92.92,0,0,1-.2-.31,2.65,2.65,0,0,0-1-1.39,2.77,2.77,0,0,0-1.55-.4,2.64,2.64,0,0,0-2,.74,3.43,3.43,0,0,0-.82,2.4q0,.72,0,1.41a3.4,3.4,0,0,0,.82,2.41,2.67,2.67,0,0,0,2,.73,2.77,2.77,0,0,0,1.55-.4,2.65,2.65,0,0,0,1-1.39,1.11,1.11,0,0,1,.2-.32.4.4,0,0,1,.3-.1h1a.47.47,0,0,1,.34.13.35.35,0,0,1,.12.33,2.82,2.82,0,0,1-.18.87,3.26,3.26,0,0,1-.51.89,3.81,3.81,0,0,1-.88.81,4.23,4.23,0,0,1-1.25.56A5.63,5.63,0,0,1,242.42,78.14Z"/><path class="cls-1" d="M255,77.93a.43.43,0,0,1-.47-.46V64.31a.5.5,0,0,1,.12-.35.45.45,0,0,1,.35-.13h4.91a5.57,5.57,0,0,1,3.61,1.07,3.79,3.79,0,0,1,1.33,3.16,3.94,3.94,0,0,1-.78,2.53A4,4,0,0,1,262,72l3.1,5.36a.49.49,0,0,1,.06.22.35.35,0,0,1-.13.28.42.42,0,0,1-.29.12h-1a.64.64,0,0,1-.5-.18,2.93,2.93,0,0,1-.28-.36L260,72.27h-3.52v5.2a.45.45,0,0,1-.13.33.48.48,0,0,1-.36.13Zm1.51-7.37h3.32a3.39,3.39,0,0,0,2.26-.64,2.32,2.32,0,0,0,.74-1.88,2.35,2.35,0,0,0-.73-1.87,3.38,3.38,0,0,0-2.27-.65h-3.32Z"/><path class="cls-1" d="M271.52,78.14a4.39,4.39,0,0,1-3.32-1.28,5.29,5.29,0,0,1-1.35-3.5,6.55,6.55,0,0,1,0-.68,6.44,6.44,0,0,1,0-.67,5.86,5.86,0,0,1,.66-2.51,4.13,4.13,0,0,1,1.6-1.66,4.73,4.73,0,0,1,2.39-.59,4.78,4.78,0,0,1,2.57.65,4.11,4.11,0,0,1,1.58,1.83,6.66,6.66,0,0,1,.55,2.78v.35a.48.48,0,0,1-.13.34.49.49,0,0,1-.34.12h-7v.18a4.34,4.34,0,0,0,.36,1.54,2.83,2.83,0,0,0,.94,1.16,2.37,2.37,0,0,0,1.44.44,2.88,2.88,0,0,0,1.21-.22,3.14,3.14,0,0,0,.79-.49,2.73,2.73,0,0,0,.4-.43,1,1,0,0,1,.28-.3.85.85,0,0,1,.32,0h1a.47.47,0,0,1,.31.11.33.33,0,0,1,.11.32,1.53,1.53,0,0,1-.32.73,4,4,0,0,1-.85.86,4.69,4.69,0,0,1-1.38.69A5.51,5.51,0,0,1,271.52,78.14Zm-2.76-6.21h5.52v-.06a3.73,3.73,0,0,0-.33-1.61,2.62,2.62,0,0,0-1-1.12,2.59,2.59,0,0,0-1.49-.42,2.55,2.55,0,0,0-1.48.42,2.65,2.65,0,0,0-.94,1.12,3.89,3.89,0,0,0-.32,1.61Z"/><path class="cls-1" d="M281.54,78.14a4.11,4.11,0,0,1-1.84-.41,3.57,3.57,0,0,1-1.33-1.09,2.56,2.56,0,0,1-.5-1.55A2.61,2.61,0,0,1,279,72.88a6.41,6.41,0,0,1,2.94-1.09l3-.43v-.58a2,2,0,0,0-.55-1.51,2.53,2.53,0,0,0-1.81-.55,2.66,2.66,0,0,0-1.45.37,2,2,0,0,0-.78.92.43.43,0,0,1-.43.31H279a.46.46,0,0,1-.34-.13.52.52,0,0,1-.11-.32,1.62,1.62,0,0,1,.24-.74,2.93,2.93,0,0,1,.71-.87,4.08,4.08,0,0,1,1.24-.71,5,5,0,0,1,1.84-.3,5.75,5.75,0,0,1,2,.32,3.21,3.21,0,0,1,1.3.83,3.32,3.32,0,0,1,.69,1.19,4.47,4.47,0,0,1,.21,1.35v6.53a.45.45,0,0,1-.47.46h-.92a.43.43,0,0,1-.47-.46V76.6a3.37,3.37,0,0,1-.7.72,3.87,3.87,0,0,1-1.11.58A4.83,4.83,0,0,1,281.54,78.14Zm.42-1.52a3.2,3.2,0,0,0,1.51-.35,2.45,2.45,0,0,0,1.08-1.1,4,4,0,0,0,.39-1.87v-.57l-2.34.35a5.39,5.39,0,0,0-2.15.67,1.4,1.4,0,0,0-.73,1.2,1.33,1.33,0,0,0,.34.94,2,2,0,0,0,.84.55A3.19,3.19,0,0,0,282,76.62Z"/><path class="cls-1" d="M293.57,78.14a4.25,4.25,0,0,1-1.92-.4,3.65,3.65,0,0,1-1.32-1.07,4.53,4.53,0,0,1-.76-1.54,7.69,7.69,0,0,1-.3-1.83c0-.22,0-.42,0-.61s0-.38,0-.6a7.61,7.61,0,0,1,.3-1.81,4.72,4.72,0,0,1,.76-1.56,3.65,3.65,0,0,1,1.32-1.07,4.25,4.25,0,0,1,1.92-.4,4,4,0,0,1,2,.43,4.07,4.07,0,0,1,1.29,1V64.09a.47.47,0,0,1,.13-.33.45.45,0,0,1,.34-.13h1a.45.45,0,0,1,.34.13.47.47,0,0,1,.13.33V77.47a.45.45,0,0,1-.47.46h-.9a.43.43,0,0,1-.47-.46v-.85a4,4,0,0,1-1.31,1.08A4.21,4.21,0,0,1,293.57,78.14ZM294,76.5A2.57,2.57,0,0,0,295.6,76a2.79,2.79,0,0,0,.91-1.18,4,4,0,0,0,.32-1.46c0-.21,0-.47,0-.78s0-.56,0-.77a3.45,3.45,0,0,0-.33-1.39,2.77,2.77,0,0,0-.93-1.13,2.59,2.59,0,0,0-1.58-.44,2.67,2.67,0,0,0-1.63.45,2.49,2.49,0,0,0-.87,1.19,5.75,5.75,0,0,0-.3,1.58q0,.58,0,1.17a5.75,5.75,0,0,0,.3,1.58,2.49,2.49,0,0,0,.87,1.19A2.67,2.67,0,0,0,294,76.5Z"/><path class="cls-1" d="M302,65.5a.44.44,0,0,1-.46-.46V64a.45.45,0,0,1,.13-.34.43.43,0,0,1,.33-.15h1.27a.45.45,0,0,1,.34.15.42.42,0,0,1,.14.34V65a.42.42,0,0,1-.14.33.47.47,0,0,1-.34.13Zm.16,12.43a.44.44,0,0,1-.33-.13.42.42,0,0,1-.13-.33V67.92a.42.42,0,0,1,.13-.33.44.44,0,0,1,.33-.13h1a.44.44,0,0,1,.33.13.42.42,0,0,1,.13.33v9.55a.42.42,0,0,1-.13.33.44.44,0,0,1-.33.13Z"/><path class="cls-1" d="M307.25,77.93a.44.44,0,0,1-.33-.13.42.42,0,0,1-.13-.33V67.92a.42.42,0,0,1,.13-.33.44.44,0,0,1,.33-.13h.95a.44.44,0,0,1,.33.13.42.42,0,0,1,.13.33v.89A4.1,4.1,0,0,1,310,67.69a4.24,4.24,0,0,1,2-.44,4.12,4.12,0,0,1,2.22.58,3.59,3.59,0,0,1,1.39,1.59,5.51,5.51,0,0,1,.48,2.37v5.68a.45.45,0,0,1-.47.46h-1a.45.45,0,0,1-.47-.46V71.89a3.32,3.32,0,0,0-.68-2.21,2.52,2.52,0,0,0-2-.79,2.62,2.62,0,0,0-2,.79,3.06,3.06,0,0,0-.76,2.21v5.58a.42.42,0,0,1-.13.33.44.44,0,0,1-.33.13Z"/><path class="cls-1" d="M323.29,82.37A6,6,0,0,1,321,82a4.21,4.21,0,0,1-1.37-.88,3.49,3.49,0,0,1-.7-1,2.65,2.65,0,0,1-.23-.82.38.38,0,0,1,.13-.34.49.49,0,0,1,.33-.14h1a.56.56,0,0,1,.3.08.64.64,0,0,1,.2.34,3.79,3.79,0,0,0,.36.68,2,2,0,0,0,.75.64,2.91,2.91,0,0,0,1.41.28,4.13,4.13,0,0,0,1.59-.27,1.87,1.87,0,0,0,1-.88,3.79,3.79,0,0,0,.33-1.74V76.56a3.65,3.65,0,0,1-1.27,1,4.14,4.14,0,0,1-2,.42,4.44,4.44,0,0,1-1.94-.4,3.74,3.74,0,0,1-1.32-1.07,4.72,4.72,0,0,1-.76-1.54,7.21,7.21,0,0,1-.29-1.81,10.27,10.27,0,0,1,0-1.11,7.13,7.13,0,0,1,.29-1.81,4.92,4.92,0,0,1,.76-1.56,3.74,3.74,0,0,1,1.32-1.07,4.31,4.31,0,0,1,1.94-.4,4,4,0,0,1,2,.45,3.92,3.92,0,0,1,1.3,1.11v-.87a.49.49,0,0,1,.13-.34.42.42,0,0,1,.34-.14h.92a.48.48,0,0,1,.49.48v9.77a5.87,5.87,0,0,1-.46,2.4,3.45,3.45,0,0,1-1.49,1.65A5.45,5.45,0,0,1,323.29,82.37Zm0-6a2.62,2.62,0,0,0,1.62-.46,2.74,2.74,0,0,0,.91-1.17,3.83,3.83,0,0,0,.31-1.43c0-.19,0-.42,0-.7s0-.5,0-.69a3.83,3.83,0,0,0-.31-1.43,2.74,2.74,0,0,0-.91-1.17,3.09,3.09,0,0,0-3.23,0,2.55,2.55,0,0,0-.87,1.19,5.75,5.75,0,0,0-.3,1.58c0,.35,0,.71,0,1.07a5.75,5.75,0,0,0,.3,1.58,2.55,2.55,0,0,0,.87,1.19A2.63,2.63,0,0,0,323.25,76.4Z"/><path class="cls-1" d="M336.69,77.93a.44.44,0,0,1-.34-.13.45.45,0,0,1-.12-.33V64.31a.5.5,0,0,1,.12-.35.44.44,0,0,1,.34-.13h5.12a6.4,6.4,0,0,1,2.59.48,3.7,3.7,0,0,1,1.7,1.44,4.35,4.35,0,0,1,.61,2.39,4.29,4.29,0,0,1-.61,2.38A3.74,3.74,0,0,1,344.4,72a6.4,6.4,0,0,1-2.59.48h-3.57v5a.42.42,0,0,1-.13.33.45.45,0,0,1-.35.13Zm1.53-7.19h3.49a3.24,3.24,0,0,0,2.24-.67,2.42,2.42,0,0,0,.74-1.93,2.53,2.53,0,0,0-.72-1.93,3.2,3.2,0,0,0-2.26-.69h-3.49Z"/><path class="cls-1" d="M349.39,77.93a.42.42,0,0,1-.33-.13.42.42,0,0,1-.14-.33V64.09a.44.44,0,0,1,.14-.33.42.42,0,0,1,.33-.13h.95a.44.44,0,0,1,.34.13.46.46,0,0,1,.12.33V77.47a.45.45,0,0,1-.12.33.44.44,0,0,1-.34.13Z"/><path class="cls-1" d="M356.72,78.14a4.1,4.1,0,0,1-1.83-.41,3.57,3.57,0,0,1-1.33-1.09,2.5,2.5,0,0,1-.5-1.55,2.59,2.59,0,0,1,1.13-2.21,6.41,6.41,0,0,1,2.94-1.09l3-.43v-.58a2,2,0,0,0-.55-1.51,2.54,2.54,0,0,0-1.81-.55,2.66,2.66,0,0,0-1.45.37,1.94,1.94,0,0,0-.79.92.42.42,0,0,1-.42.31h-.9a.46.46,0,0,1-.34-.13.52.52,0,0,1-.11-.32,1.71,1.71,0,0,1,.23-.74,3.14,3.14,0,0,1,.72-.87,4,4,0,0,1,1.24-.71,5,5,0,0,1,1.84-.3,5.75,5.75,0,0,1,2,.32,3.21,3.21,0,0,1,1.3.83,3.29,3.29,0,0,1,.68,1.19,4.47,4.47,0,0,1,.21,1.35v6.53a.42.42,0,0,1-.13.33.43.43,0,0,1-.33.13h-.93a.44.44,0,0,1-.34-.13.45.45,0,0,1-.12-.33V76.6a3.21,3.21,0,0,1-.71.72,3.68,3.68,0,0,1-1.1.58A4.89,4.89,0,0,1,356.72,78.14Zm.43-1.52a3.2,3.2,0,0,0,1.51-.35,2.5,2.5,0,0,0,1.08-1.1,4,4,0,0,0,.39-1.87v-.57l-2.34.35a5.39,5.39,0,0,0-2.15.67,1.4,1.4,0,0,0-.73,1.2,1.37,1.37,0,0,0,.33.94,2,2,0,0,0,.85.55A3.15,3.15,0,0,0,357.15,76.62Z"/><path class="cls-1" d="M368.92,77.93a3.46,3.46,0,0,1-1.84-.43,2.47,2.47,0,0,1-1-1.23,4.9,4.9,0,0,1-.33-1.88V69.07h-1.57a.49.49,0,0,1-.33-.13.45.45,0,0,1-.13-.34v-.68a.42.42,0,0,1,.13-.33.44.44,0,0,1,.33-.13h1.57V64.09a.47.47,0,0,1,.13-.33.45.45,0,0,1,.34-.13h.94a.45.45,0,0,1,.34.13.47.47,0,0,1,.13.33v3.37h2.5a.44.44,0,0,1,.34.13.45.45,0,0,1,.12.33v.68a.49.49,0,0,1-.12.34.48.48,0,0,1-.34.13h-2.5v5.18a2.89,2.89,0,0,0,.32,1.49,1.22,1.22,0,0,0,1.15.54h1.23a.49.49,0,0,1,.33.13.45.45,0,0,1,.13.34v.72a.42.42,0,0,1-.13.33.44.44,0,0,1-.33.13Z"/><path class="cls-1" d="M374.22,77.93a.45.45,0,0,1-.47-.46v-8.4H372a.45.45,0,0,1-.46-.47v-.68a.44.44,0,0,1,.46-.46h1.71v-1a4.43,4.43,0,0,1,.35-1.81,2.53,2.53,0,0,1,1.09-1.2,4.2,4.2,0,0,1,2-.42h1.21a.44.44,0,0,1,.33.13.45.45,0,0,1,.13.34v.68a.43.43,0,0,1-.13.33.44.44,0,0,1-.33.13h-1.17a1.47,1.47,0,0,0-1.29.5,2.46,2.46,0,0,0-.34,1.42v.91h2.6a.44.44,0,0,1,.33.13.42.42,0,0,1,.13.33v.68a.45.45,0,0,1-.13.34.49.49,0,0,1-.33.13h-2.6v8.4a.45.45,0,0,1-.47.46Z"/><path class="cls-1" d="M384.55,78.14a5.13,5.13,0,0,1-2.56-.59,4,4,0,0,1-1.57-1.62,5.61,5.61,0,0,1-.6-2.37c0-.23,0-.52,0-.88s0-.64,0-.85a5.47,5.47,0,0,1,.61-2.38A4,4,0,0,1,382,67.84a5.1,5.1,0,0,1,2.54-.59,5,5,0,0,1,2.54.59,4,4,0,0,1,1.59,1.61,5.62,5.62,0,0,1,.61,2.38c0,.21,0,.5,0,.85s0,.65,0,.88a5.61,5.61,0,0,1-.6,2.37,4,4,0,0,1-1.58,1.62A5.08,5.08,0,0,1,384.55,78.14Zm0-1.56a2.61,2.61,0,0,0,2-.79,3.49,3.49,0,0,0,.81-2.33c0-.2,0-.46,0-.77s0-.56,0-.76a3.49,3.49,0,0,0-.81-2.33,2.93,2.93,0,0,0-4,0,3.44,3.44,0,0,0-.8,2.33c0,.2,0,.46,0,.76s0,.57,0,.77a3.44,3.44,0,0,0,.8,2.33A2.62,2.62,0,0,0,384.55,76.58Z"/><path class="cls-1" d="M392.29,77.93a.44.44,0,0,1-.33-.13.42.42,0,0,1-.13-.33V67.94a.45.45,0,0,1,.13-.34.42.42,0,0,1,.33-.14h.93a.44.44,0,0,1,.34.14.42.42,0,0,1,.14.34v.89a2.57,2.57,0,0,1,1.11-1,3.86,3.86,0,0,1,1.71-.34h.79a.44.44,0,0,1,.46.46v.82a.42.42,0,0,1-.13.33.45.45,0,0,1-.33.12H396.1a2.31,2.31,0,0,0-1.71.63,2.36,2.36,0,0,0-.63,1.73v5.92a.39.39,0,0,1-.14.33.47.47,0,0,1-.34.13Z"/><path class="cls-1" d="M400,77.93a.44.44,0,0,1-.33-.13.42.42,0,0,1-.13-.33V67.92a.42.42,0,0,1,.13-.33.44.44,0,0,1,.33-.13h.91a.44.44,0,0,1,.33.13.42.42,0,0,1,.13.33v.7a3.4,3.4,0,0,1,1.17-1,3.54,3.54,0,0,1,1.69-.38,3.31,3.31,0,0,1,3.23,1.86,3.37,3.37,0,0,1,1.35-1.35,4,4,0,0,1,2-.51,3.75,3.75,0,0,1,1.91.49A3.37,3.37,0,0,1,414,69.2a5.4,5.4,0,0,1,.49,2.45v5.82a.42.42,0,0,1-.13.33.44.44,0,0,1-.33.13h-.95a.44.44,0,0,1-.33-.13.42.42,0,0,1-.13-.33V71.83a4,4,0,0,0-.33-1.78,1.84,1.84,0,0,0-.86-.9,2.66,2.66,0,0,0-1.19-.26,2.37,2.37,0,0,0-1.07.26,2.05,2.05,0,0,0-.9.9,3.85,3.85,0,0,0-.35,1.78v5.64a.42.42,0,0,1-.13.33.44.44,0,0,1-.33.13h-.95a.44.44,0,0,1-.33-.13.42.42,0,0,1-.13-.33V71.83a3.85,3.85,0,0,0-.35-1.78,1.92,1.92,0,0,0-.88-.9,2.58,2.58,0,0,0-1.15-.26,2.37,2.37,0,0,0-1.07.26,2.05,2.05,0,0,0-.9.9,3.79,3.79,0,0,0-.35,1.76v5.66a.42.42,0,0,1-.13.33.44.44,0,0,1-.33.13Z"/><circle class="cls-2" cx="35.2" cy="31.34" r="3.23"/><circle class="cls-2" cx="104.76" cy="31.34" r="3.23"/></svg>