<svg xmlns="http://www.w3.org/2000/svg" viewBox="0 0 72.77 73.99"><defs><style>.cls-1,.cls-2,.cls-5,.cls-6{stroke:#000;}.cls-1,.cls-2,.cls-3,.cls-4,.cls-5,.cls-6{stroke-miterlimit:1;}.cls-2{fill:#fff;}.cls-3,.cls-4,.cls-5,.cls-6{fill:none;}.cls-3,.cls-4{stroke:#fff;}.cls-3,.cls-4,.cls-6{stroke-linecap:round;}.cls-4{stroke-dasharray:5.93 2.96;}.cls-6{stroke-width:0.5px;stroke-dasharray:6 3;}</style></defs><g id="Layer_2" data-name="Layer 2"><g id="Layer_1-2" data-name="Layer 1"><path class="cls-1" d="M68.91.5H19.28A18.78,18.78,0,0,0,.5,19.28V56A17.54,17.54,0,0,0,18,73.49H70.32a2,2,0,0,0,2-1.95v-.92a2,2,0,0,0-1.94-2l-54.08-.15a7,7,0,0,1-7-7h0a7,7,0,0,1,7-7l52.47.26a3.5,3.5,0,0,0,3.5-3.49V3.86A3.36,3.36,0,0,0,68.91.5Z"/><rect class="cls-2" x="18.27" y="9.5" width="46" height="19" rx="2.17"/><path d="M28.33,23.62a.34.34,0,0,1-.36-.36V13.5a.36.36,0,0,1,.36-.38h6.6a.37.37,0,0,1,.27.11.36.36,0,0,1,.1.27v1a.33.33,0,0,1-.1.25.37.37,0,0,1-.27.11H30V17.5H34.6a.41.41,0,0,1,.27.1.34.34,0,0,1,.1.26v.93a.36.36,0,0,1-.1.27.4.4,0,0,1-.27.09H30V21.9h5.06a.34.34,0,0,1,.37.37v1a.35.35,0,0,1-.1.26.36.36,0,0,1-.27.1Z"/><path d="M37.66,23.62a.34.34,0,0,1-.36-.36V13.5a.36.36,0,0,1,.36-.38h1.15a.44.44,0,0,1,.31.1l.13.14,4.32,6.72V13.5a.36.36,0,0,1,.1-.27.33.33,0,0,1,.26-.11h1.26a.37.37,0,0,1,.27.11.36.36,0,0,1,.1.27v9.75a.36.36,0,0,1-.1.27.35.35,0,0,1-.26.1H44a.38.38,0,0,1-.3-.1,1,1,0,0,0-.13-.14l-4.31-6.57v6.45a.35.35,0,0,1-.1.26.36.36,0,0,1-.27.1Z"/><path d="M52,23.77a5.19,5.19,0,0,1-2.34-.48,3.46,3.46,0,0,1-1.5-1.38,4.51,4.51,0,0,1-.58-2.17c0-.43,0-.89,0-1.39s0-1,0-1.4a4.32,4.32,0,0,1,.58-2.13,3.53,3.53,0,0,1,1.51-1.37A5.27,5.27,0,0,1,52,13a5.61,5.61,0,0,1,1.92.3,4.32,4.32,0,0,1,1.38.75,3.22,3.22,0,0,1,.82,1,2.18,2.18,0,0,1,.29,1,.27.27,0,0,1-.07.23.32.32,0,0,1-.24.09H54.53a.34.34,0,0,1-.22-.06.54.54,0,0,1-.14-.18,2.12,2.12,0,0,0-.37-.62,2,2,0,0,0-.69-.52A2.62,2.62,0,0,0,52,14.7a2.33,2.33,0,0,0-1.62.54A2.38,2.38,0,0,0,49.7,17q0,1.31,0,2.64a2.49,2.49,0,0,0,.67,1.83,2.38,2.38,0,0,0,1.64.56,2.9,2.9,0,0,0,1.21-.24,1.8,1.8,0,0,0,.84-.75,2.47,2.47,0,0,0,.31-1.31v-.46H52.54a.36.36,0,0,1-.36-.38v-.79a.36.36,0,0,1,.36-.38h3.58a.37.37,0,0,1,.27.11.4.4,0,0,1,.09.27v1.57a4.22,4.22,0,0,1-.54,2.18,3.68,3.68,0,0,1-1.56,1.41A5.44,5.44,0,0,1,52,23.77Z"/><line class="cls-3" x1="13.51" y1="1.41" x2="13.51" y2="4.41"/><line class="cls-4" x1="13.51" y1="7.37" x2="13.51" y2="50.34"/><line class="cls-3" x1="13.51" y1="51.82" x2="13.51" y2="54.82"/><line class="cls-5" x1="67.46" y1="54.82" x2="67.46" y2="68.66"/><line class="cls-6" x1="9.92" y1="58.6" x2="67.77" y2="58.6"/><line class="cls-6" x1="8.77" y1="61.6" x2="67.77" y2="61.6"/><line class="cls-6" x1="9.92" y1="64.6" x2="67.77" y2="64.6"/></g></g></svg>