<svg xmlns="http://www.w3.org/2000/svg" viewBox="0 0 72.77 73.99"><defs><style>.cls-1,.cls-2,.cls-5,.cls-6{stroke:#000;}.cls-1,.cls-2,.cls-3,.cls-4,.cls-5,.cls-6{stroke-miterlimit:1;}.cls-2{fill:#fff;}.cls-3,.cls-4,.cls-5,.cls-6{fill:none;}.cls-3,.cls-4{stroke:#fff;}.cls-3,.cls-4,.cls-6{stroke-linecap:round;}.cls-4{stroke-dasharray:5.93 2.96;}.cls-6{stroke-width:0.5px;stroke-dasharray:6 3;}</style></defs><g id="Layer_2" data-name="Layer 2"><g id="Layer_1-2" data-name="Layer 1"><path class="cls-1" d="M68.91.5H19.28A18.78,18.78,0,0,0,.5,19.28V56A17.54,17.54,0,0,0,18,73.49H70.32a2,2,0,0,0,2-1.95v-.92a2,2,0,0,0-1.94-2l-54.08-.15a7,7,0,0,1-7-7h0a7,7,0,0,1,7-7l52.47.26a3.5,3.5,0,0,0,3.5-3.49V3.86A3.36,3.36,0,0,0,68.91.5Z"/><rect class="cls-2" x="18.27" y="9.5" width="46" height="19" rx="2.17"/><line class="cls-3" x1="13.51" y1="1.41" x2="13.51" y2="4.41"/><line class="cls-4" x1="13.51" y1="7.37" x2="13.51" y2="50.34"/><line class="cls-3" x1="13.51" y1="51.82" x2="13.51" y2="54.82"/><path d="M33,23.71a.33.33,0,0,1-.25-.11.34.34,0,0,1-.11-.25V13.58a.37.37,0,0,1,.11-.27.32.32,0,0,1,.25-.1h6.51a.36.36,0,0,1,.27.1.37.37,0,0,1,.11.27v1.05a.33.33,0,0,1-.11.26.36.36,0,0,1-.27.1H34.66v2.85h4.51a.38.38,0,0,1,.38.38v1.05a.34.34,0,0,1-.11.25.37.37,0,0,1-.27.11H34.66v3.72a.34.34,0,0,1-.11.25.37.37,0,0,1-.27.11Z"/><path d="M42,23.71a.35.35,0,0,1-.26-.11.33.33,0,0,1-.1-.25V13.57a.35.35,0,0,1,.1-.26.34.34,0,0,1,.26-.1h1.41a.34.34,0,0,1,.26.1.4.4,0,0,1,.1.26v9.78a.37.37,0,0,1-.1.25.35.35,0,0,1-.26.11Z"/><path d="M46.46,23.71a.33.33,0,0,1-.25-.11.34.34,0,0,1-.11-.25V13.57a.36.36,0,0,1,.11-.26.32.32,0,0,1,.25-.1h1.39a.34.34,0,0,1,.26.1.36.36,0,0,1,.11.26v8.35H53a.38.38,0,0,1,.38.38v1.05a.34.34,0,0,1-.11.25.37.37,0,0,1-.27.11Z"/><line class="cls-5" x1="67.46" y1="54.82" x2="67.46" y2="68.66"/><line class="cls-6" x1="9.92" y1="58.6" x2="67.77" y2="58.6"/><line class="cls-6" x1="8.92" y1="61.6" x2="67.77" y2="61.6"/><line class="cls-6" x1="9.92" y1="64.6" x2="67.77" y2="64.6"/></g></g></svg>